<svg width="350" height="200" viewBox="0 0 350 200" fill="none" xmlns="http://www.w3.org/2000/svg">
<rect width="350" height="200" fill="#333333"/>
<path d="M105.357 100.341H112.135V54H106.102L94.5122 63.2948L98.1044 67.7431L105.357 61.6351V100.341Z" fill="white"/>
<path d="M150.61 54H120.652V59.4441H143.696L125.667 100.341H133.123L150.61 59.4441V54Z" fill="white"/>
<path d="M208.128 68.5957H202.697L195.376 94.2599H195.258L187.701 68.5957H181.148L173.472 94.2599H173.354L166.447 68.5957H160.366L170.048 99.6117H176.483L184.099 73.5826H184.218L192.011 99.6117H198.446L208.128 68.5957Z" fill="white"/>
<path d="M236.645 92.6179C235.287 93.7734 231.036 95.7195 227.375 95.7195C222.121 95.7195 217.457 91.5232 217.457 85.3808H238.947C238.947 75.4071 235.7 67.8659 225.663 67.8659C217.162 67.8659 211.553 74.3732 211.553 83.5564C211.553 93.6517 216.453 100.341 227.139 100.341C232.099 100.341 234.519 99.1251 236.645 98.3345V92.6179ZM217.457 81.1237C217.87 77.1099 220.114 72.4879 225.545 72.4879C230.327 72.4879 233.043 76.3801 233.043 81.1237H217.457Z" fill="white"/>
<path d="M246.366 99.6117H251.68V95.233H251.798C253.274 97.5439 256.698 100.341 262.07 100.341C271.162 100.341 275 92.0705 275 83.5564C275 75.2246 270.749 67.8659 262.011 67.8659C256.757 67.8659 253.746 69.9945 252.034 72.8528H251.916V54H246.366V99.6117ZM269.096 83.9821C269.214 88.8473 266.735 95.7195 260.772 95.7195C254.514 95.7195 251.916 89.3338 251.916 84.1645C251.916 78.387 254.809 72.4879 260.831 72.4879C266.853 72.4879 269.214 78.387 269.096 83.9821Z" fill="white"/>
<path d="M75.5067 93.0736C75.1622 94.0088 75 95.0805 75 95.9768C75 98.4319 76.3377 100.341 78.8511 100.341C83.2494 100.341 82.3779 94.496 85.5398 94.496C87.2019 94.496 87.8505 96.0548 87.8505 97.1654C87.8505 98.1591 87.4451 99.3282 87.1613 99.9907L89.0463 100.186C89.3504 99.2893 89.6341 98.354 89.6341 97.3992C89.6341 94.6713 88.4383 92.4305 85.4182 92.4305C80.7564 92.4305 81.3847 98.276 78.6687 98.276C77.189 98.276 76.7837 96.99 76.7837 95.8989C76.7837 94.8857 76.9661 94.3401 77.3715 93.3463L75.5067 93.0736Z" fill="white"/>
<path d="M89.3909 89.6832V87.7347H82.459L89.3909 81.6748V78.83L81.932 85.7277L75.2432 79.3366V81.9281L81.4658 87.7347H75.2432V89.6832H89.3909Z" fill="white"/>
<path d="M89.3909 76.7842L89.3909 74.8357H75.2432V76.7842H89.3909Z" fill="white"/>
<path d="M89.3909 71.3806V63.7425H87.6073V69.4321H75.2432V71.3806H89.3909Z" fill="white"/>
<path d="M89.3909 61.6381V54H87.6073V59.6896L75.2432 59.6896V61.6381L89.3909 61.6381Z" fill="white"/>
<path d="M86.6499 120.667H82.078V115.653L78.8946 116.669V120.667H75V123.241H78.8946V133.336C78.8946 136.791 80.9266 138.35 84.2116 138.35C85.2276 138.35 86.2097 138.079 86.9209 137.875V135.165C86.4467 135.47 85.7355 135.775 84.7534 135.775C83.2972 135.775 82.078 134.691 82.078 132.692V123.241H86.6499V120.667Z" fill="white"/>
<path d="M103.877 134.047C103.098 134.691 100.659 135.775 98.5597 135.775C95.5456 135.775 92.8702 133.438 92.8702 130.016H105.197C105.197 124.461 103.335 120.26 97.5776 120.26C92.7008 120.26 89.4836 123.885 89.4836 129C89.4836 134.623 92.2944 138.35 98.4242 138.35C101.269 138.35 102.657 137.672 103.877 137.232V134.047ZM92.8702 127.645C93.1072 125.409 94.3941 122.835 97.5098 122.835C100.253 122.835 101.811 125.003 101.811 127.645H92.8702Z" fill="white"/>
<path d="M120.697 120.938C119.782 120.565 118.123 120.26 116.836 120.26C111.553 120.26 108.031 124.054 108.031 129.305C108.031 134.251 111.621 138.35 116.836 138.35C117.987 138.35 119.511 138.248 120.832 137.638L120.595 134.793C119.613 135.436 118.258 135.775 117.175 135.775C113.077 135.775 111.417 132.388 111.417 129.305C111.417 126.019 113.415 122.835 116.971 122.835C117.987 122.835 119.207 123.072 120.426 123.58L120.697 120.938Z" fill="white"/>
<path d="M124.501 137.943H127.684V129.949C127.684 125.748 129.31 122.835 132.934 122.835C135.711 123.004 136.591 124.969 136.591 129V137.943H139.775V127.679C139.775 123.038 137.777 120.26 133.306 120.26C130.902 120.26 128.904 121.31 127.752 123.14H127.684V112.537H124.501V137.943Z" fill="white"/>
<path d="M145.204 137.943H148.388V129.949C148.388 125.748 150.013 122.835 153.637 122.835C156.414 123.004 157.295 124.969 157.295 129V137.943H160.478V127.679C160.478 123.038 158.48 120.26 154.01 120.26C151.605 120.26 149.302 121.446 148.354 123.411H148.286V120.667H145.204V137.943Z" fill="white"/>
<path d="M164.756 129.305C164.756 134.251 168.346 138.35 173.561 138.35C178.743 138.35 182.333 134.251 182.333 129.305C182.333 124.054 178.811 120.26 173.561 120.26C168.278 120.26 164.756 124.054 164.756 129.305ZM168.143 129.305C168.143 126.019 170.141 122.835 173.561 122.835C176.948 122.835 178.946 126.019 178.946 129.305C178.946 132.388 177.287 135.775 173.561 135.775C169.802 135.775 168.143 132.388 168.143 129.305Z" fill="white"/>
<path d="M187.017 137.943H190.201V112.537H187.017V137.943Z" fill="white"/>
<path d="M194.885 129.305C194.885 134.251 198.475 138.35 203.69 138.35C208.872 138.35 212.462 134.251 212.462 129.305C212.462 124.054 208.939 120.26 203.69 120.26C198.407 120.26 194.885 124.054 194.885 129.305ZM198.272 129.305C198.272 126.019 200.27 122.835 203.69 122.835C207.077 122.835 209.075 126.019 209.075 129.305C209.075 132.388 207.416 135.775 203.69 135.775C199.931 135.775 198.272 132.388 198.272 129.305Z" fill="white"/>
<path d="M232.013 120.667H229.067V123.241H228.999C228.051 121.378 226.358 120.26 223.31 120.26C218.094 120.26 215.588 125.003 215.588 129.44C215.588 133.912 218.027 137.943 222.971 137.943C225.172 137.943 227.408 137.062 228.762 135.267H228.83V136.961C228.83 140.619 226.832 142.889 223.479 142.889C221.142 142.889 219.686 142.449 217.248 141.331L216.909 144.278C219.686 145.226 221.278 145.463 223.107 145.463C229.304 145.463 232.013 142.449 232.013 137.198V120.667ZM223.784 135.369C220.804 135.369 218.975 132.523 218.975 129.271C218.975 126.324 220.567 122.835 223.784 122.835C227.171 122.835 228.83 125.917 228.83 129.508C228.83 132.726 226.764 135.369 223.784 135.369Z" fill="white"/>
<path d="M237.849 137.943H241.033V120.667H237.849V137.943ZM241.236 113.214H237.646V116.805H241.236V113.214Z" fill="white"/>
<path d="M260.11 134.047C259.331 134.691 256.893 135.775 254.793 135.775C251.779 135.775 249.104 133.438 249.104 130.016H261.431C261.431 124.461 259.568 120.26 253.811 120.26C248.935 120.26 245.717 123.885 245.717 129C245.717 134.623 248.528 138.35 254.658 138.35C257.503 138.35 258.891 137.672 260.11 137.232V134.047ZM249.104 127.645C249.341 125.409 250.628 122.835 253.743 122.835C256.487 122.835 258.044 125.003 258.044 127.645H249.104Z" fill="white"/>
<path d="M264.231 137.401C265.687 138.18 267.346 138.35 268.972 138.35C272.054 138.35 275 136.656 275 132.963C275 127.442 267.516 128.458 267.516 124.935C267.516 123.512 268.938 122.835 270.564 122.835C271.309 122.835 273.205 123.275 273.916 123.715L274.187 120.938C272.934 120.565 271.715 120.26 270.225 120.26C266.804 120.26 264.129 121.988 264.129 125.579C264.129 130.423 271.613 130.152 271.613 133.302C271.613 135.165 269.819 135.775 268.362 135.775C267.448 135.775 265.653 135.369 264.4 134.556L264.231 137.401Z" fill="white"/>
</svg>
