<svg width="200" height="200" viewBox="0 0 200 200" fill="none" xmlns="http://www.w3.org/2000/svg">
<path d="M28.659 165.143H20.597L19.263 169H15L22.279 148.729H27.006L34.285 169H29.993L28.659 165.143ZM27.557 161.895L24.628 153.427L21.699 161.895H27.557Z" fill="#012238"/>
<path d="M35.9618 160.967C35.9618 159.304 36.3001 157.854 36.9768 156.617C37.6535 155.36 38.5911 154.394 39.7898 153.717C40.9885 153.021 42.3611 152.673 43.9078 152.673C45.8991 152.673 47.5425 153.176 48.8378 154.181C50.1525 155.167 51.0321 156.559 51.4768 158.357H47.0978C46.8658 157.661 46.4695 157.12 45.9088 156.733C45.3675 156.327 44.6908 156.124 43.8788 156.124C42.7188 156.124 41.8005 156.549 41.1238 157.4C40.4471 158.231 40.1088 159.42 40.1088 160.967C40.1088 162.494 40.4471 163.683 41.1238 164.534C41.8005 165.365 42.7188 165.781 43.8788 165.781C45.5221 165.781 46.5951 165.046 47.0978 163.577H51.4768C51.0321 165.317 50.1525 166.699 48.8378 167.724C47.5231 168.749 45.8798 169.261 43.9078 169.261C42.3611 169.261 40.9885 168.923 39.7898 168.246C38.5911 167.55 37.6535 166.583 36.9768 165.346C36.3001 164.089 35.9618 162.63 35.9618 160.967Z" fill="#012238"/>
<path d="M59.1781 156.269V164.041C59.1781 164.582 59.3038 164.979 59.5551 165.23C59.8258 165.462 60.2704 165.578 60.8891 165.578H62.7741V169H60.2221C56.8001 169 55.0891 167.337 55.0891 164.012V156.269H53.1751V152.934H55.0891V148.961H59.1781V152.934H62.7741V156.269H59.1781Z" fill="#012238"/>
<path d="M67.7533 151.02C67.0379 151.02 66.4386 150.798 65.9553 150.353C65.4913 149.889 65.2593 149.319 65.2593 148.642C65.2593 147.965 65.4913 147.405 65.9553 146.96C66.4386 146.496 67.0379 146.264 67.7533 146.264C68.4686 146.264 69.0583 146.496 69.5223 146.96C70.0056 147.405 70.2473 147.965 70.2473 148.642C70.2473 149.319 70.0056 149.889 69.5223 150.353C69.0583 150.798 68.4686 151.02 67.7533 151.02ZM69.7543 152.934V169H65.6943V152.934H69.7543Z" fill="#012238"/>
<path d="M80.4646 165.259L84.5246 152.934H88.8456L82.9006 169H77.9706L72.0546 152.934H76.4046L80.4646 165.259Z" fill="#012238"/>
<path d="M106.061 160.619C106.061 161.199 106.022 161.721 105.945 162.185H94.1999C94.2966 163.345 94.7026 164.254 95.4179 164.911C96.1332 165.568 97.0129 165.897 98.0569 165.897C99.5649 165.897 100.638 165.249 101.276 163.954H105.655C105.191 165.501 104.302 166.777 102.987 167.782C101.672 168.768 100.058 169.261 98.1439 169.261C96.5972 169.261 95.2052 168.923 93.9679 168.246C92.7499 167.55 91.7929 166.574 91.0969 165.317C90.4202 164.06 90.0819 162.61 90.0819 160.967C90.0819 159.304 90.4202 157.845 91.0969 156.588C91.7736 155.331 92.7209 154.365 93.9389 153.688C95.1569 153.011 96.5586 152.673 98.1439 152.673C99.6712 152.673 101.034 153.002 102.233 153.659C103.451 154.316 104.389 155.254 105.046 156.472C105.723 157.671 106.061 159.053 106.061 160.619ZM101.856 159.459C101.837 158.415 101.46 157.584 100.725 156.965C99.9902 156.327 99.0912 156.008 98.0279 156.008C97.0226 156.008 96.1719 156.317 95.4759 156.936C94.7992 157.535 94.3836 158.376 94.2289 159.459H101.856Z" fill="#012238"/>
<path d="M123.785 155.022C123.785 156.105 123.524 157.12 123.002 158.067C122.5 159.014 121.697 159.778 120.595 160.358C119.513 160.938 118.14 161.228 116.477 161.228H113.084V169H109.024V148.758H116.477C118.043 148.758 119.377 149.029 120.479 149.57C121.581 150.111 122.403 150.856 122.944 151.803C123.505 152.75 123.785 153.823 123.785 155.022ZM116.303 157.951C117.425 157.951 118.256 157.7 118.797 157.197C119.339 156.675 119.609 155.95 119.609 155.022C119.609 153.05 118.507 152.064 116.303 152.064H113.084V157.951H116.303Z" fill="#012238"/>
<path d="M141.835 152.934V169H137.746V166.97C137.224 167.666 136.538 168.217 135.687 168.623C134.856 169.01 133.947 169.203 132.961 169.203C131.704 169.203 130.593 168.942 129.626 168.42C128.659 167.879 127.896 167.096 127.335 166.071C126.794 165.027 126.523 163.79 126.523 162.359V152.934H130.583V161.779C130.583 163.055 130.902 164.041 131.54 164.737C132.178 165.414 133.048 165.752 134.15 165.752C135.271 165.752 136.151 165.414 136.789 164.737C137.427 164.041 137.746 163.055 137.746 161.779V152.934H141.835Z" fill="#012238"/>
<path d="M149.901 147.54V169H145.841V147.54H149.901Z" fill="#012238"/>
<path d="M160.06 169.261C158.745 169.261 157.566 169.029 156.522 168.565C155.478 168.082 154.647 167.434 154.028 166.622C153.429 165.81 153.1 164.911 153.042 163.925H157.131C157.208 164.544 157.508 165.056 158.03 165.462C158.571 165.868 159.238 166.071 160.031 166.071C160.804 166.071 161.404 165.916 161.829 165.607C162.274 165.298 162.496 164.901 162.496 164.418C162.496 163.896 162.225 163.509 161.684 163.258C161.162 162.987 160.321 162.697 159.161 162.388C157.962 162.098 156.976 161.798 156.203 161.489C155.449 161.18 154.792 160.706 154.231 160.068C153.69 159.43 153.419 158.57 153.419 157.487C153.419 156.598 153.67 155.786 154.173 155.051C154.695 154.316 155.43 153.736 156.377 153.311C157.344 152.886 158.475 152.673 159.77 152.673C161.684 152.673 163.211 153.156 164.352 154.123C165.493 155.07 166.121 156.356 166.237 157.98H162.351C162.293 157.342 162.022 156.839 161.539 156.472C161.075 156.085 160.447 155.892 159.654 155.892C158.919 155.892 158.349 156.027 157.943 156.298C157.556 156.569 157.363 156.946 157.363 157.429C157.363 157.97 157.634 158.386 158.175 158.676C158.716 158.947 159.557 159.227 160.698 159.517C161.858 159.807 162.815 160.107 163.569 160.416C164.323 160.725 164.971 161.209 165.512 161.866C166.073 162.504 166.363 163.355 166.382 164.418C166.382 165.346 166.121 166.177 165.599 166.912C165.096 167.647 164.362 168.227 163.395 168.652C162.448 169.058 161.336 169.261 160.06 169.261Z" fill="#012238"/>
<path d="M184.65 160.619C184.65 161.199 184.611 161.721 184.534 162.185H172.789C172.885 163.345 173.291 164.254 174.007 164.911C174.722 165.568 175.602 165.897 176.646 165.897C178.154 165.897 179.227 165.249 179.865 163.954H184.244C183.78 165.501 182.89 166.777 181.576 167.782C180.261 168.768 178.647 169.261 176.733 169.261C175.186 169.261 173.794 168.923 172.557 168.246C171.339 167.55 170.382 166.574 169.686 165.317C169.009 164.06 168.671 162.61 168.671 160.967C168.671 159.304 169.009 157.845 169.686 156.588C170.362 155.331 171.31 154.365 172.528 153.688C173.746 153.011 175.147 152.673 176.733 152.673C178.26 152.673 179.623 153.002 180.822 153.659C182.04 154.316 182.977 155.254 183.635 156.472C184.311 157.671 184.65 159.053 184.65 160.619ZM180.445 159.459C180.425 158.415 180.048 157.584 179.314 156.965C178.579 156.327 177.68 156.008 176.617 156.008C175.611 156.008 174.761 156.317 174.065 156.936C173.388 157.535 172.972 158.376 172.818 159.459H180.445Z" fill="#012238"/>
<path fill-rule="evenodd" clip-rule="evenodd" d="M57.0856 100.695L42.9291 132H59.6025L64.2581 121.814L57.0856 100.695ZM69.7514 72.687L76.6701 93.0588L99.9291 40.9646L130.562 109.574H95.5434L90.1046 120.831L135.215 120.582L140.443 132H156.929L110.978 30H89.0552L69.7514 72.687Z" fill="#012238"/>
<path d="M42.9291 132L40.6512 130.97C40.3013 131.744 40.368 132.642 40.8284 133.355C41.2889 134.069 42.0799 134.5 42.9291 134.5V132ZM57.0856 100.695L59.4528 99.8914C59.1227 98.9195 58.2323 98.2482 57.2072 98.1983C56.1821 98.1484 55.2306 98.73 54.8077 99.6652L57.0856 100.695ZM59.6025 132V134.5C60.581 134.5 61.4695 133.929 61.8763 133.039L59.6025 132ZM64.2581 121.814L66.5319 122.854C66.797 122.274 66.8304 121.614 66.6253 121.01L64.2581 121.814ZM69.7514 72.687L67.4735 71.6569C67.2122 72.2348 67.1803 72.8904 67.3842 73.491L69.7514 72.687ZM76.6701 93.0588L74.3029 93.8628C74.6337 94.8366 75.5271 95.5086 76.5545 95.5561C77.5819 95.6037 78.5336 95.0172 78.9529 94.078L76.6701 93.0588ZM99.9291 40.9646L102.212 39.9454C101.81 39.0447 100.916 38.4646 99.9291 38.4646C98.9426 38.4646 98.0484 39.0447 97.6463 39.9454L99.9291 40.9646ZM130.562 109.574V112.074C131.409 112.074 132.198 111.645 132.659 110.935C133.12 110.224 133.19 109.328 132.845 108.555L130.562 109.574ZM95.5434 109.574V107.074C94.5842 107.074 93.7096 107.623 93.2923 108.486L95.5434 109.574ZM90.1046 120.831L87.8536 119.743C87.4782 120.52 87.53 121.436 87.9906 122.166C88.4512 122.895 89.2555 123.336 90.1184 123.331L90.1046 120.831ZM135.215 120.582L137.488 119.541C137.079 118.648 136.184 118.077 135.201 118.082L135.215 120.582ZM140.443 132L138.17 133.041C138.577 133.93 139.465 134.5 140.443 134.5V132ZM156.929 132V134.5C157.778 134.5 158.568 134.07 159.029 133.357C159.489 132.644 159.557 131.747 159.208 130.973L156.929 132ZM110.978 30L113.258 28.9731C112.854 28.0765 111.962 27.5 110.978 27.5V30ZM89.0552 30V27.5C88.0731 27.5 87.182 28.075 86.7773 28.9699L89.0552 30ZM45.207 133.03L59.3635 101.725L54.8077 99.6652L40.6512 130.97L45.207 133.03ZM59.6025 129.5H42.9291V134.5H59.6025V129.5ZM61.9844 120.775L57.3288 130.961L61.8763 133.039L66.5319 122.854L61.9844 120.775ZM66.6253 121.01L59.4528 99.8914L54.7184 101.499L61.8909 122.618L66.6253 121.01ZM67.3842 73.491L74.3029 93.8628L79.0373 92.2548L72.1186 71.8831L67.3842 73.491ZM97.6463 39.9454L74.3873 92.0396L78.9529 94.078L102.212 41.9839L97.6463 39.9454ZM132.845 108.555L102.212 39.9454L97.6463 41.9839L128.279 110.593L132.845 108.555ZM95.5434 112.074H130.562V107.074H95.5434V112.074ZM93.2923 108.486L87.8536 119.743L92.3556 121.919L97.7944 110.662L93.2923 108.486ZM135.201 118.082L90.0908 118.331L90.1184 123.331L135.229 123.082L135.201 118.082ZM142.716 130.959L137.488 119.541L132.942 121.623L138.17 133.041L142.716 130.959ZM156.929 129.5H140.443V134.5H156.929V129.5ZM108.699 31.0269L154.65 133.027L159.208 130.973L113.258 28.9731L108.699 31.0269ZM89.0552 32.5H110.978V27.5H89.0552V32.5ZM72.0293 73.7172L91.3331 31.0301L86.7773 28.9699L67.4735 71.6569L72.0293 73.7172Z" fill="#012238"/>
<path d="M117.929 98H104.824L94.9291 86.5L76.4291 121.5L59.9291 76L47.3642 98H31.9291" stroke="#F2640A" stroke-width="7" stroke-linecap="round" stroke-linejoin="round"/>
</svg>
